<svg viewBox="0 0 368 214" xmlns="http://www.w3.org/2000/svg" xmlns:xlink="http://www.w3.org/1999/xlink" width="368.000000" height="214.000000" fill="none" customFrame="#000000">
	<defs>
		<g id="pixso_custom_effect_11">
			<effect x="0.000000" y="4.000000" visibility="visible" fill="rgb(0,0,0)" fill-opacity="0.25" effectType="dropShadow" stdDeviation="4" radius="0" />
		</g>
		<filter id="filter_11" width="368.000000" height="214.000000" x="0.000000" y="0.000000" filterUnits="userSpaceOnUse" customEffect="url(#pixso_custom_effect_11)" color-interpolation-filters="sRGB">
			<feFlood flood-opacity="0" result="BackgroundImageFix" />
			<feOffset dx="0.000000" dy="4.000000" in="SourceAlpha" />
			<feGaussianBlur stdDeviation="1.33333337" />
			<feColorMatrix type="matrix" values="0 0 0 0 0 0 0 0 0 0 0 0 0 0 0 0 0 0 0.25 0 " />
			<feBlend result="effect_dropShadow_1" in2="BackgroundImageFix" mode="normal" />
			<feBlend result="shape" in="SourceGraphic" in2="effect_dropShadow_1" mode="normal" />
		</filter>
		<g id="pixso_custom_effect_12">
			<effect x="0.000000" y="4.000000" visibility="visible" fill="rgb(0,0,0)" fill-opacity="0.25" effectType="dropShadow" stdDeviation="4" radius="0" />
		</g>
		<filter id="filter_12" width="42.000000" height="133.000000" x="316.000000" y="37.000000" filterUnits="userSpaceOnUse" customEffect="url(#pixso_custom_effect_12)" color-interpolation-filters="sRGB">
			<feFlood flood-opacity="0" result="BackgroundImageFix" />
			<feOffset dx="0.000000" dy="4.000000" in="SourceAlpha" />
			<feGaussianBlur stdDeviation="1.33333337" />
			<feColorMatrix type="matrix" values="0 0 0 0 0 0 0 0 0 0 0 0 0 0 0 0 0 0 0.25 0 " />
			<feBlend result="effect_dropShadow_1" in2="BackgroundImageFix" mode="normal" />
			<feBlend result="shape" in="SourceGraphic" in2="effect_dropShadow_1" mode="normal" />
		</filter>
		<g id="pixso_custom_effect_13">
			<effect x="0.000000" y="4.000000" visibility="visible" fill="rgb(0,0,0)" fill-opacity="0.25" effectType="dropShadow" stdDeviation="4" radius="0" />
		</g>
		<filter id="filter_13" width="34.000000" height="34.000000" x="15.000000" y="86.000000" filterUnits="userSpaceOnUse" customEffect="url(#pixso_custom_effect_13)" color-interpolation-filters="sRGB">
			<feFlood flood-opacity="0" result="BackgroundImageFix" />
			<feOffset dx="0.000000" dy="4.000000" in="SourceAlpha" />
			<feGaussianBlur stdDeviation="1.33333337" />
			<feColorMatrix type="matrix" values="0 0 0 0 0 0 0 0 0 0 0 0 0 0 0 0 0 0 0.25 0 " />
			<feBlend result="effect_dropShadow_1" in2="BackgroundImageFix" mode="normal" />
			<feBlend result="shape" in="SourceGraphic" in2="effect_dropShadow_1" mode="normal" />
		</filter>
		<clipPath id="clipPath_21">
			<rect width="26.000000" height="26.000000" x="19.000000" y="48.000000" fill="rgb(255,255,255)" />
		</clipPath>
		<g id="pixso_custom_effect_14">
			<effect x="0.000000" y="4.000000" visibility="visible" fill="rgb(0,0,0)" fill-opacity="0.25" effectType="dropShadow" stdDeviation="4" radius="0" />
		</g>
		<filter id="filter_14" width="34.000000" height="34.000000" x="15.000000" y="48.000000" filterUnits="userSpaceOnUse" customEffect="url(#pixso_custom_effect_14)" color-interpolation-filters="sRGB">
			<feFlood flood-opacity="0" result="BackgroundImageFix" />
			<feOffset dx="0.000000" dy="4.000000" in="SourceAlpha" />
			<feGaussianBlur stdDeviation="1.33333337" />
			<feColorMatrix type="matrix" values="0 0 0 0 0 0 0 0 0 0 0 0 0 0 0 0 0 0 0.25 0 " />
			<feBlend result="effect_dropShadow_1" in2="BackgroundImageFix" mode="normal" />
			<feBlend result="shape" in="SourceGraphic" in2="effect_dropShadow_1" mode="normal" />
		</filter>
		<clipPath id="clipPath_22">
			<rect width="24.000000" height="24.000000" x="20.000000" y="48.000000" fill="rgb(255,255,255)" />
		</clipPath>
		<clipPath id="clipPath_23">
			<rect width="26.000000" height="26.000000" x="19.000000" y="124.000000" fill="rgb(255,255,255)" />
		</clipPath>
		<g id="pixso_custom_effect_15">
			<effect x="0.000000" y="4.000000" visibility="visible" fill="rgb(0,0,0)" fill-opacity="0.25" effectType="dropShadow" stdDeviation="4" radius="0" />
		</g>
		<filter id="filter_15" width="34.000000" height="34.000000" x="15.000000" y="124.000000" filterUnits="userSpaceOnUse" customEffect="url(#pixso_custom_effect_15)" color-interpolation-filters="sRGB">
			<feFlood flood-opacity="0" result="BackgroundImageFix" />
			<feOffset dx="0.000000" dy="4.000000" in="SourceAlpha" />
			<feGaussianBlur stdDeviation="1.33333337" />
			<feColorMatrix type="matrix" values="0 0 0 0 0 0 0 0 0 0 0 0 0 0 0 0 0 0 0.25 0 " />
			<feBlend result="effect_dropShadow_1" in2="BackgroundImageFix" mode="normal" />
			<feBlend result="shape" in="SourceGraphic" in2="effect_dropShadow_1" mode="normal" />
		</filter>
		<clipPath id="clipPath_24">
			<rect width="10.000000" height="10.000000" x="0.000000" y="0.000000" fill="rgb(255,255,255)" transform="matrix(-1,0,0,1,37,136)" />
		</clipPath>
		<clipPath id="clipPath_25">
			<rect width="40.000000" height="40.000000" x="317.000000" y="37.000000" fill="rgb(255,255,255)" />
		</clipPath>
		<clipPath id="clipPath_26">
			<rect width="40.000000" height="40.000000" x="317.000000" y="37.000000" fill="rgb(255,255,255)" />
		</clipPath>
		<clipPath id="clipPath_27">
			<rect width="40.000000" height="40.000000" x="317.000000" y="125.000000" fill="rgb(255,255,255)" />
		</clipPath>
		<clipPath id="clipPath_28">
			<rect width="40.000000" height="40.000000" x="317.000000" y="125.000000" fill="rgb(255,255,255)" />
		</clipPath>
		<clipPath id="clipPath_29">
			<rect width="24.000000" height="24.000000" x="325.000000" y="87.000000" fill="rgb(255,255,255)" />
		</clipPath>
		<clipPath id="clipPath_30">
			<rect width="24.000000" height="24.000000" x="325.000000" y="87.000000" fill="rgb(255,255,255)" />
		</clipPath>
	</defs>
	<rect id="Monitor" width="360.000000" height="206.000000" x="4.000000" y="0.000000" />
	<g filter="url(#filter_11)">
		<rect id="Rectangle 1" width="360.000000" height="206.000000" x="4.000000" y="0.000000" rx="20.000000" fill="rgb(39.2308,38.4763,38.4763)" />
		<rect id="Rectangle 1" width="358.000000" height="204.000000" x="5.000000" y="1.000000" rx="19.000000" stroke="rgb(196.154,183.894,183.894)" stroke-width="2" />
	</g>
	<rect id="Rectangle 2" width="235.000000" height="130.000000" x="63.000000" y="39.000000" rx="10.000000" fill="rgb(217,217,217)" />
	<g filter="url(#filter_12)">
		<rect id="Rectangle 3" width="34.000000" height="125.000000" x="320.000000" y="37.000000" rx="10.000000" fill="rgb(122.596,120.239,120.239)" />
	</g>
	<path id="Vector 1" d="M71.5 2L71.5 30L55 46.5L55 161.5L71.5 178L71.5 205.5" stroke="rgb(196.154,183.894,183.894)" stroke-width="1" />
	<path id="Vector 2" d="M320.5 2L320.5 30L304 46.5L304 161.5L320.5 178L320.5 205.5" stroke="rgb(196.154,183.894,183.894)" stroke-width="1" />
	<g filter="url(#filter_13)">
		<circle id="Ellipse 2" cx="32" cy="99" r="13" fill="rgb(122.596,120.239,120.239)" />
	</g>
	<g id="Button On/Off" customFrame="url(#clipPath_21)">
		<rect id="Button On/Off" width="26.000000" height="26.000000" x="19.000000" y="48.000000" />
		<g filter="url(#filter_14)">
			<circle id="Ellipse 1" cx="32" cy="61" r="13" fill="rgb(122.596,120.239,120.239)" />
		</g>
		<g id="Power" clip-path="url(#clipPath_22)" customFrame="url(#clipPath_22)">
			<rect id="Power" width="24.000000" height="24.000000" x="20.000000" y="48.000000" fill="rgb(255,255,255)" fill-opacity="0" />
			<path id="Icon" d="M38.36 54.64C39.6184 55.8988 40.4753 57.5024 40.8223 59.2482C41.1693 60.9939 40.9909 62.8034 40.3096 64.4478C39.6284 66.0921 38.4748 67.4976 36.9948 68.4864C35.5148 69.4752 33.7749 70.0029 31.995 70.0029C30.2151 70.0029 28.4752 69.4752 26.9952 68.4864C25.5152 67.4976 24.3616 66.0921 23.6804 64.4478C22.9991 62.8034 22.8207 60.9939 23.1677 59.2482C23.5147 57.5024 24.3716 55.8988 25.63 54.64M32 50L32 60" fill-rule="nonzero" stroke="rgb(255,255,255)" stroke-linecap="round" stroke-linejoin="round" stroke-width="2.5" />
		</g>
	</g>
	<g id="Button Menu/Back" customFrame="url(#clipPath_23)">
		<rect id="Button Menu/Back" width="26.000000" height="26.000000" x="19.000000" y="124.000000" />
		<g filter="url(#filter_15)">
			<circle id="Ellipse 3" cx="32" cy="137" r="13" fill="rgb(122.596,120.239,120.239)" />
		</g>
		<path id="MENU" d="M22.5593 129.455L23.4915 129.455L25.1122 133.412L25.1719 133.412L26.7926 129.455L27.7248 129.455L27.7248 134.545L26.994 134.545L26.994 130.862L26.9467 130.862L25.4453 134.538L24.8388 134.538L23.3374 130.859L23.2901 130.859L23.2901 134.545L22.5593 134.545L22.5593 129.455ZM28.8415 134.545L28.8415 129.455L32.0333 129.455L32.0333 130.116L29.6096 130.116L29.6096 131.667L31.8667 131.667L31.8667 132.326L29.6096 132.326L29.6096 133.884L32.0631 133.884L32.0631 134.545L28.8415 134.545ZM37.1683 129.455L37.1683 134.545L36.4624 134.545L33.8746 130.812L33.8274 130.812L33.8274 134.545L33.0593 134.545L33.0593 129.455L33.7702 129.455L36.3604 133.193L36.4077 133.193L36.4077 129.455L37.1683 129.455ZM41.5626 129.455L42.3332 129.455L42.3332 132.803C42.3332 133.159 42.2495 133.475 42.0821 133.75C41.9147 134.023 41.6794 134.239 41.3762 134.396C41.0729 134.552 40.7174 134.63 40.3097 134.63C39.9037 134.63 39.5491 134.552 39.2458 134.396C38.9426 134.239 38.7072 134.023 38.5399 133.75C38.3725 133.475 38.2888 133.159 38.2888 132.803L38.2888 129.455L39.0569 129.455L39.0569 132.741C39.0569 132.971 39.1075 133.176 39.2085 133.355C39.3113 133.534 39.4563 133.675 39.6436 133.777C39.8308 133.878 40.0529 133.929 40.3097 133.929C40.5683 133.929 40.7912 133.878 40.9784 133.777C41.1673 133.675 41.3115 133.534 41.411 133.355C41.512 133.176 41.5626 132.971 41.5626 132.741L41.5626 129.455Z" fill="rgb(255,255,255)" fill-rule="nonzero" />
		<path id="Rectangle 4" d="M23 141C23 138.791 24.7909 137 27 137L37 137C39.2091 137 41 138.791 41 141C41 143.209 39.2091 145 37 145L27 145C24.7909 145 23 143.209 23 141Z" fill="rgb(217,217,217)" fill-rule="nonzero" />
		<g id="redo" clip-path="url(#clipPath_24)" customFrame="url(#clipPath_24)">
			<rect id="redo" width="10.000000" height="10.000000" x="0.000000" y="0.000000" transform="matrix(-1,0,0,1,37,136)" />
			<path id="icon" d="M2.45833 6.25C1.78472 6.25 1.2066 6.03125 0.723958 5.59375C0.241319 5.15625 0 4.61111 0 3.95833C0 3.30556 0.241319 2.76042 0.723958 2.32292C1.2066 1.88542 1.78472 1.66667 2.45833 1.66667L5.08333 1.66667L4 0.583333L4.58333 0L6.66667 2.08333L4.58333 4.16667L4 3.58333L5.08333 2.5L2.45833 2.5C2.02083 2.5 1.64062 2.63889 1.31771 2.91667C0.994792 3.19444 0.833333 3.54167 0.833333 3.95833C0.833333 4.375 0.994792 4.72222 1.31771 5C1.64062 5.27778 2.02083 5.41667 2.45833 5.41667L5.41667 5.41667L5.41667 6.25L2.45833 6.25Z" fill="rgb(29,27,32)" fill-rule="nonzero" transform="matrix(-1,0,0,1,35.3333,137.667)" />
		</g>
	</g>
	<g id="Chevron up" customFrame="url(#clipPath_25)">
		<rect id="Chevron up" width="40.000000" height="40.000000" x="317.000000" y="37.000000" fill="rgb(255,255,255)" fill-opacity="0" />
		<g id="Chevron up" clip-path="url(#clipPath_26)" customFrame="url(#clipPath_26)">
			<rect id="Chevron up" width="40.000000" height="40.000000" x="317.000000" y="37.000000" fill="rgb(255,255,255)" fill-opacity="0" />
			<path id="Icon" d="M347 62L337 52L327 62" fill-rule="nonzero" stroke="rgb(255,255,255)" stroke-linecap="round" stroke-linejoin="round" stroke-width="3.5" />
		</g>
	</g>
	<g id="Chevron down" customFrame="url(#clipPath_27)">
		<rect id="Chevron down" width="40.000000" height="40.000000" x="317.000000" y="125.000000" fill="rgb(255,255,255)" fill-opacity="0" />
		<g id="Chevron down" clip-path="url(#clipPath_28)" customFrame="url(#clipPath_28)">
			<rect id="Chevron down" width="40.000000" height="40.000000" x="317.000000" y="125.000000" fill="rgb(255,255,255)" fill-opacity="0" />
			<path id="Icon" d="M327 140L337 150L347 140" fill-rule="nonzero" stroke="rgb(255,255,255)" stroke-linecap="round" stroke-linejoin="round" stroke-width="3.5" />
		</g>
		<line id="Line 1" x1="327" x2="347" y1="124" y2="124" stroke="rgb(0,0,0)" stroke-width="4" />
		<line id="Line 2" x1="327" x2="347" y1="76" y2="76" stroke="rgb(0,0,0)" stroke-width="4" />
	</g>
	<g id="Circle" customFrame="url(#clipPath_29)">
		<rect id="Circle" width="24.000000" height="24.000000" x="325.000000" y="87.000000" fill="rgb(255,255,255)" fill-opacity="0" />
		<g id="Circle" clip-path="url(#clipPath_30)" customFrame="url(#clipPath_30)">
			<rect id="Circle" width="24.000000" height="24.000000" x="325.000000" y="87.000000" fill="rgb(255,255,255)" fill-opacity="0" />
			<path id="Icon" d="M337 109C331.477 109 327 104.523 327 99C327 93.4771 331.477 89 337 89C342.523 89 347 93.4771 347 99C347 104.523 342.523 109 337 109Z" fill-rule="nonzero" stroke="rgb(255,255,255)" stroke-linecap="round" stroke-linejoin="round" stroke-width="2.5" />
		</g>
	</g>
	<path id="PULSE MINING" d="M115.292 80.128L107.876 80.128L107.876 87.22L107.516 87.22L107.516 67.78L115.292 67.78C116.42 67.78 117.332 67.912 118.028 68.176C118.748 68.416 119.3 68.752 119.684 69.184C120.068 69.616 120.332 70.132 120.476 70.732C120.62 71.332 120.692 71.98 120.692 72.676L120.692 75.34C120.692 76.036 120.62 76.684 120.476 77.284C120.332 77.86 120.068 78.364 119.684 78.796C119.3 79.204 118.748 79.528 118.028 79.768C117.332 80.008 116.42 80.128 115.292 80.128ZM107.876 79.768L115.292 79.768C116.348 79.768 117.2 79.66 117.848 79.444C118.52 79.228 119.036 78.928 119.396 78.544C119.756 78.136 119.996 77.668 120.116 77.14C120.26 76.588 120.332 75.988 120.332 75.34L120.332 72.676C120.332 72.028 120.26 71.428 120.116 70.876C119.996 70.324 119.756 69.844 119.396 69.436C119.036 69.028 118.52 68.716 117.848 68.5C117.2 68.26 116.348 68.14 115.292 68.14L107.876 68.14L107.876 79.768ZM131.803 67.78L132.163 67.78L132.163 82.792C132.163 84.136 132.631 85.228 133.567 86.068C134.527 86.884 136.339 87.292 139.003 87.292C141.667 87.292 143.479 86.884 144.439 86.068C145.399 85.228 145.879 84.136 145.879 82.792L145.879 67.78L146.239 67.78L146.239 82.792C146.239 84.232 145.735 85.408 144.727 86.32C143.719 87.208 141.811 87.652 139.003 87.652C136.195 87.652 134.287 87.208 133.279 86.32C132.295 85.408 131.803 84.232 131.803 82.792L131.803 67.78ZM158.806 87.22L158.806 67.78L159.166 67.78L159.166 86.86L171.694 86.86L171.694 79.768L172.054 79.768L172.054 87.22L158.806 87.22ZM194.854 67.78L194.854 68.14L186.862 68.14C185.854 68.14 185.05 68.416 184.45 68.968C183.85 69.52 183.55 70.216 183.55 71.056L183.55 74.008C183.55 74.848 183.718 75.436 184.054 75.772C184.39 76.108 184.834 76.324 185.386 76.42L192.982 77.968C193.702 78.112 194.29 78.424 194.746 78.904C195.226 79.384 195.466 80.248 195.466 81.496L195.466 83.584C195.466 84.64 195.106 85.516 194.386 86.212C193.666 86.884 192.694 87.22 191.47 87.22L182.506 87.22L182.506 86.86L191.47 86.86C192.574 86.86 193.45 86.56 194.098 85.96C194.77 85.336 195.106 84.544 195.106 83.584L195.106 81.496C195.106 80.368 194.902 79.6 194.494 79.192C194.11 78.76 193.582 78.472 192.91 78.328L185.314 76.78C184.69 76.66 184.174 76.42 183.766 76.06C183.382 75.676 183.19 74.992 183.19 74.008L183.19 71.056C183.19 70.096 183.526 69.316 184.198 68.716C184.87 68.092 185.758 67.78 186.862 67.78L194.854 67.78ZM219.384 86.86L219.384 87.22L207.252 87.22L207.252 67.78L219.384 67.78L219.384 68.14L207.612 68.14L207.612 77.176L216.468 77.176L216.468 77.536L207.612 77.536L207.612 86.86L219.384 86.86ZM116.156 119.6C116.588 119.6 116.9 119.504 117.092 119.312C117.284 119.12 117.584 118.712 117.992 118.088L122.384 111.392C122.528 111.152 122.684 110.996 122.852 110.924C123.044 110.828 123.236 110.78 123.428 110.78L124.04 110.78C124.376 110.78 124.616 110.876 124.76 111.068C124.928 111.236 125.012 111.512 125.012 111.896L125.012 130.22L124.652 130.22L124.652 111.896C124.652 111.704 124.604 111.536 124.508 111.392C124.436 111.224 124.28 111.14 124.04 111.14L123.5 111.14C123.332 111.14 123.188 111.164 123.068 111.212C122.948 111.26 122.816 111.404 122.672 111.644L118.28 118.268C117.848 118.916 117.512 119.36 117.272 119.6C117.056 119.84 116.684 119.96 116.156 119.96C115.628 119.96 115.244 119.84 115.004 119.6C114.788 119.36 114.464 118.916 114.032 118.268L109.64 111.644C109.496 111.404 109.352 111.26 109.208 111.212C109.088 111.164 108.944 111.14 108.776 111.14L108.236 111.14C107.996 111.14 107.84 111.224 107.768 111.392C107.696 111.536 107.66 111.704 107.66 111.896L107.66 130.22L107.3 130.22L107.3 111.896C107.3 111.512 107.372 111.236 107.516 111.068C107.684 110.876 107.924 110.78 108.236 110.78L108.848 110.78C109.04 110.78 109.232 110.828 109.424 110.924C109.616 110.996 109.784 111.152 109.928 111.392L114.32 118.088C114.728 118.712 115.028 119.12 115.22 119.312C115.412 119.504 115.724 119.6 116.156 119.6ZM148.147 130.22L136.699 130.22L136.699 129.86L142.279 129.86L142.279 111.14L136.699 111.14L136.699 110.78L148.147 110.78L148.147 111.14L142.639 111.14L142.639 129.86L148.147 129.86L148.147 130.22ZM160.584 111.068L173.832 125.972L173.832 110.78L174.192 110.78L174.192 130.22L173.832 130.22L173.832 126.512L160.224 111.248C160.2 111.224 160.164 111.2 160.116 111.176C160.092 111.152 160.068 111.14 160.044 111.14C160.02 111.14 159.996 111.152 159.972 111.176C159.972 111.2 159.972 111.224 159.972 111.248L159.972 130.22L159.612 130.22L159.612 111.176C159.612 111.032 159.66 110.924 159.756 110.852C159.852 110.78 159.948 110.744 160.044 110.744C160.14 110.744 160.224 110.768 160.296 110.816C160.368 110.864 160.464 110.948 160.584 111.068ZM197.049 130.22L185.601 130.22L185.601 129.86L191.181 129.86L191.181 111.14L185.601 111.14L185.601 110.78L197.049 110.78L197.049 111.14L191.541 111.14L191.541 129.86L197.049 129.86L197.049 130.22ZM209.486 111.068L222.734 125.972L222.734 110.78L223.094 110.78L223.094 130.22L222.734 130.22L222.734 126.512L209.126 111.248C209.102 111.224 209.066 111.2 209.018 111.176C208.994 111.152 208.97 111.14 208.946 111.14C208.922 111.14 208.898 111.152 208.874 111.176C208.874 111.2 208.874 111.224 208.874 111.248L208.874 130.22L208.514 130.22L208.514 111.176C208.514 111.032 208.562 110.924 208.658 110.852C208.754 110.78 208.85 110.744 208.946 110.744C209.042 110.744 209.126 110.768 209.198 110.816C209.27 110.864 209.366 110.948 209.486 111.068ZM241.847 130.22C240.527 130.22 239.447 130.136 238.607 129.968C237.767 129.8 237.107 129.536 236.627 129.176C236.147 128.792 235.811 128.312 235.619 127.736C235.451 127.136 235.367 126.416 235.367 125.576L235.367 115.496C235.367 113.792 235.751 112.58 236.519 111.86C237.287 111.14 238.823 110.78 241.127 110.78L247.355 110.78L247.355 111.14L241.127 111.14C239.015 111.14 237.587 111.476 236.843 112.148C236.099 112.796 235.727 113.912 235.727 115.496L235.727 125.576C235.727 127.136 236.135 128.24 236.951 128.888C237.791 129.536 239.423 129.86 241.847 129.86L248.651 129.86L248.651 122.984L249.011 122.984L249.011 130.22L241.847 130.22Z" fill="rgb(0,0,0)" fill-rule="nonzero" />
	<rect id="Rectangle 9" width="25.000000" height="5.000000" x="19.000000" y="76.000000" rx="2.500000" fill="rgb(226.803,116.673,116.673)" />
	<rect id="Rectangle 10" width="25.000000" height="5.000000" x="19.000000" y="115.000000" rx="2.500000" fill="rgb(150.981,163.053,59.577)" />
</svg>
