<svg viewBox="0 0 368 214" xmlns="http://www.w3.org/2000/svg" xmlns:xlink="http://www.w3.org/1999/xlink" width="368.000000" height="214.000000" fill="none" customFrame="#000000">
	<defs>
		<g id="pixso_custom_effect_16">
			<effect x="0.000000" y="4.000000" visibility="visible" fill="rgb(0,0,0)" fill-opacity="0.25" effectType="dropShadow" stdDeviation="4" radius="0" />
		</g>
		<filter id="filter_16" width="368.000000" height="214.000000" x="0.000000" y="0.000000" filterUnits="userSpaceOnUse" customEffect="url(#pixso_custom_effect_16)" color-interpolation-filters="sRGB">
			<feFlood flood-opacity="0" result="BackgroundImageFix" />
			<feOffset dx="0.000000" dy="4.000000" in="SourceAlpha" />
			<feGaussianBlur stdDeviation="1.33333337" />
			<feColorMatrix type="matrix" values="0 0 0 0 0 0 0 0 0 0 0 0 0 0 0 0 0 0 0.25 0 " />
			<feBlend result="effect_dropShadow_1" in2="BackgroundImageFix" mode="normal" />
			<feBlend result="shape" in="SourceGraphic" in2="effect_dropShadow_1" mode="normal" />
		</filter>
		<g id="pixso_custom_effect_17">
			<effect x="0.000000" y="4.000000" visibility="visible" fill="rgb(0,0,0)" fill-opacity="0.25" effectType="dropShadow" stdDeviation="4" radius="0" />
		</g>
		<filter id="filter_17" width="42.000000" height="133.000000" x="316.000000" y="37.000000" filterUnits="userSpaceOnUse" customEffect="url(#pixso_custom_effect_17)" color-interpolation-filters="sRGB">
			<feFlood flood-opacity="0" result="BackgroundImageFix" />
			<feOffset dx="0.000000" dy="4.000000" in="SourceAlpha" />
			<feGaussianBlur stdDeviation="1.33333337" />
			<feColorMatrix type="matrix" values="0 0 0 0 0 0 0 0 0 0 0 0 0 0 0 0 0 0 0.25 0 " />
			<feBlend result="effect_dropShadow_1" in2="BackgroundImageFix" mode="normal" />
			<feBlend result="shape" in="SourceGraphic" in2="effect_dropShadow_1" mode="normal" />
		</filter>
		<g id="pixso_custom_effect_18">
			<effect x="0.000000" y="4.000000" visibility="visible" fill="rgb(0,0,0)" fill-opacity="0.25" effectType="dropShadow" stdDeviation="4" radius="0" />
		</g>
		<filter id="filter_18" width="34.000000" height="34.000000" x="15.000000" y="86.000000" filterUnits="userSpaceOnUse" customEffect="url(#pixso_custom_effect_18)" color-interpolation-filters="sRGB">
			<feFlood flood-opacity="0" result="BackgroundImageFix" />
			<feOffset dx="0.000000" dy="4.000000" in="SourceAlpha" />
			<feGaussianBlur stdDeviation="1.33333337" />
			<feColorMatrix type="matrix" values="0 0 0 0 0 0 0 0 0 0 0 0 0 0 0 0 0 0 0.25 0 " />
			<feBlend result="effect_dropShadow_1" in2="BackgroundImageFix" mode="normal" />
			<feBlend result="shape" in="SourceGraphic" in2="effect_dropShadow_1" mode="normal" />
		</filter>
		<clipPath id="clipPath_31">
			<rect width="26.000000" height="26.000000" x="19.000000" y="48.000000" fill="rgb(255,255,255)" />
		</clipPath>
		<g id="pixso_custom_effect_19">
			<effect x="0.000000" y="4.000000" visibility="visible" fill="rgb(0,0,0)" fill-opacity="0.25" effectType="dropShadow" stdDeviation="4" radius="0" />
		</g>
		<filter id="filter_19" width="34.000000" height="34.000000" x="15.000000" y="48.000000" filterUnits="userSpaceOnUse" customEffect="url(#pixso_custom_effect_19)" color-interpolation-filters="sRGB">
			<feFlood flood-opacity="0" result="BackgroundImageFix" />
			<feOffset dx="0.000000" dy="4.000000" in="SourceAlpha" />
			<feGaussianBlur stdDeviation="1.33333337" />
			<feColorMatrix type="matrix" values="0 0 0 0 0 0 0 0 0 0 0 0 0 0 0 0 0 0 0.25 0 " />
			<feBlend result="effect_dropShadow_1" in2="BackgroundImageFix" mode="normal" />
			<feBlend result="shape" in="SourceGraphic" in2="effect_dropShadow_1" mode="normal" />
		</filter>
		<clipPath id="clipPath_32">
			<rect width="24.000000" height="24.000000" x="20.000000" y="48.000000" fill="rgb(255,255,255)" />
		</clipPath>
		<clipPath id="clipPath_33">
			<rect width="26.000000" height="26.000000" x="19.000000" y="124.000000" fill="rgb(255,255,255)" />
		</clipPath>
		<g id="pixso_custom_effect_20">
			<effect x="0.000000" y="4.000000" visibility="visible" fill="rgb(0,0,0)" fill-opacity="0.25" effectType="dropShadow" stdDeviation="4" radius="0" />
		</g>
		<filter id="filter_20" width="34.000000" height="34.000000" x="15.000000" y="124.000000" filterUnits="userSpaceOnUse" customEffect="url(#pixso_custom_effect_20)" color-interpolation-filters="sRGB">
			<feFlood flood-opacity="0" result="BackgroundImageFix" />
			<feOffset dx="0.000000" dy="4.000000" in="SourceAlpha" />
			<feGaussianBlur stdDeviation="1.33333337" />
			<feColorMatrix type="matrix" values="0 0 0 0 0 0 0 0 0 0 0 0 0 0 0 0 0 0 0.25 0 " />
			<feBlend result="effect_dropShadow_1" in2="BackgroundImageFix" mode="normal" />
			<feBlend result="shape" in="SourceGraphic" in2="effect_dropShadow_1" mode="normal" />
		</filter>
		<clipPath id="clipPath_34">
			<rect width="10.000000" height="10.000000" x="0.000000" y="0.000000" fill="rgb(255,255,255)" transform="matrix(-1,0,0,1,37,136)" />
		</clipPath>
		<clipPath id="clipPath_35">
			<rect width="40.000000" height="40.000000" x="317.000000" y="37.000000" fill="rgb(255,255,255)" />
		</clipPath>
		<clipPath id="clipPath_36">
			<rect width="40.000000" height="40.000000" x="317.000000" y="37.000000" fill="rgb(255,255,255)" />
		</clipPath>
		<clipPath id="clipPath_37">
			<rect width="40.000000" height="40.000000" x="317.000000" y="125.000000" fill="rgb(255,255,255)" />
		</clipPath>
		<clipPath id="clipPath_38">
			<rect width="40.000000" height="40.000000" x="317.000000" y="125.000000" fill="rgb(255,255,255)" />
		</clipPath>
		<clipPath id="clipPath_39">
			<rect width="24.000000" height="24.000000" x="325.000000" y="87.000000" fill="rgb(255,255,255)" />
		</clipPath>
		<clipPath id="clipPath_40">
			<rect width="24.000000" height="24.000000" x="325.000000" y="87.000000" fill="rgb(255,255,255)" />
		</clipPath>
		<g id="pixso_custom_effect_21">
			<effect visibility="visible" effectType="gaussianBlur" stdDeviation="1.60000002" />
		</g>
		<filter id="filter_21" width="28.199999" height="8.199997" x="17.400000" y="74.400002" filterUnits="userSpaceOnUse" customEffect="url(#pixso_custom_effect_21)" color-interpolation-filters="sRGB">
			<feFlood flood-opacity="0" result="BackgroundImageFix" />
			<feBlend result="shape" in="SourceGraphic" in2="BackgroundImageFix" mode="normal" />
			<feGaussianBlur stdDeviation="0.533333361" result="effect_layerBlur_1" />
		</filter>
	</defs>
	<rect id="No Venicle" width="360.000000" height="206.000000" x="4.000000" y="0.000000" />
	<g filter="url(#filter_16)">
		<rect id="Rectangle 1" width="360.000000" height="206.000000" x="4.000000" y="0.000000" rx="20.000000" fill="rgb(39.2308,38.4763,38.4763)" />
		<rect id="Rectangle 1" width="358.000000" height="204.000000" x="5.000000" y="1.000000" rx="19.000000" stroke="rgb(196.154,183.894,183.894)" stroke-width="2" />
	</g>
	<rect id="Rectangle 2" width="235.000000" height="130.000000" x="63.000000" y="39.000000" rx="10.000000" fill="rgb(217,217,217)" />
	<g filter="url(#filter_17)">
		<rect id="Rectangle 3" width="34.000000" height="125.000000" x="320.000000" y="37.000000" rx="10.000000" fill="rgb(122.596,120.239,120.239)" />
	</g>
	<path id="Vector 1" d="M71.5 2L71.5 30L55 46.5L55 161.5L71.5 178L71.5 205.5" stroke="rgb(196.154,183.894,183.894)" stroke-width="1" />
	<path id="Vector 2" d="M320.5 2L320.5 30L304 46.5L304 161.5L320.5 178L320.5 205.5" stroke="rgb(196.154,183.894,183.894)" stroke-width="1" />
	<g filter="url(#filter_18)">
		<circle id="Ellipse 2" cx="32" cy="99" r="13" fill="rgb(122.596,120.239,120.239)" />
	</g>
	<g id="Button On/Off" customFrame="url(#clipPath_31)">
		<rect id="Button On/Off" width="26.000000" height="26.000000" x="19.000000" y="48.000000" />
		<g filter="url(#filter_19)">
			<circle id="Ellipse 1" cx="32" cy="61" r="13" fill="rgb(122.596,120.239,120.239)" />
		</g>
		<g id="Power" clip-path="url(#clipPath_32)" customFrame="url(#clipPath_32)">
			<rect id="Power" width="24.000000" height="24.000000" x="20.000000" y="48.000000" fill="rgb(255,255,255)" fill-opacity="0" />
			<path id="Icon" d="M38.36 54.64C39.6184 55.8988 40.4753 57.5024 40.8223 59.2482C41.1693 60.9939 40.9909 62.8034 40.3096 64.4478C39.6284 66.0921 38.4748 67.4976 36.9948 68.4864C35.5148 69.4752 33.7749 70.0029 31.995 70.0029C30.2151 70.0029 28.4752 69.4752 26.9952 68.4864C25.5152 67.4976 24.3616 66.0921 23.6804 64.4478C22.9991 62.8034 22.8207 60.9939 23.1677 59.2482C23.5147 57.5024 24.3716 55.8988 25.63 54.64M32 50L32 60" fill-rule="nonzero" stroke="rgb(255,255,255)" stroke-linecap="round" stroke-linejoin="round" stroke-width="2.5" />
		</g>
	</g>
	<g id="Button Menu/Back" customFrame="url(#clipPath_33)">
		<rect id="Button Menu/Back" width="26.000000" height="26.000000" x="19.000000" y="124.000000" />
		<g filter="url(#filter_20)">
			<circle id="Ellipse 3" cx="32" cy="137" r="13" fill="rgb(122.596,120.239,120.239)" />
		</g>
		<path id="MENU" d="M22.5593 129.455L23.4915 129.455L25.1122 133.412L25.1719 133.412L26.7926 129.455L27.7248 129.455L27.7248 134.545L26.994 134.545L26.994 130.862L26.9467 130.862L25.4453 134.538L24.8388 134.538L23.3374 130.859L23.2901 130.859L23.2901 134.545L22.5593 134.545L22.5593 129.455ZM28.8415 134.545L28.8415 129.455L32.0333 129.455L32.0333 130.116L29.6096 130.116L29.6096 131.667L31.8667 131.667L31.8667 132.326L29.6096 132.326L29.6096 133.884L32.0631 133.884L32.0631 134.545L28.8415 134.545ZM37.1683 129.455L37.1683 134.545L36.4624 134.545L33.8746 130.812L33.8274 130.812L33.8274 134.545L33.0593 134.545L33.0593 129.455L33.7702 129.455L36.3604 133.193L36.4077 133.193L36.4077 129.455L37.1683 129.455ZM41.5626 129.455L42.3332 129.455L42.3332 132.803C42.3332 133.159 42.2495 133.475 42.0821 133.75C41.9147 134.023 41.6794 134.239 41.3762 134.396C41.0729 134.552 40.7174 134.63 40.3097 134.63C39.9037 134.63 39.5491 134.552 39.2458 134.396C38.9426 134.239 38.7072 134.023 38.5399 133.75C38.3725 133.475 38.2888 133.159 38.2888 132.803L38.2888 129.455L39.0569 129.455L39.0569 132.741C39.0569 132.971 39.1075 133.176 39.2085 133.355C39.3113 133.534 39.4563 133.675 39.6436 133.777C39.8308 133.878 40.0529 133.929 40.3097 133.929C40.5683 133.929 40.7912 133.878 40.9784 133.777C41.1673 133.675 41.3115 133.534 41.411 133.355C41.512 133.176 41.5626 132.971 41.5626 132.741L41.5626 129.455Z" fill="rgb(255,255,255)" fill-rule="nonzero" />
		<path id="Rectangle 4" d="M23 141C23 138.791 24.7909 137 27 137L37 137C39.2091 137 41 138.791 41 141C41 143.209 39.2091 145 37 145L27 145C24.7909 145 23 143.209 23 141Z" fill="rgb(217,217,217)" fill-rule="nonzero" />
		<g id="redo" clip-path="url(#clipPath_34)" customFrame="url(#clipPath_34)">
			<rect id="redo" width="10.000000" height="10.000000" x="0.000000" y="0.000000" transform="matrix(-1,0,0,1,37,136)" />
			<path id="icon" d="M2.45833 6.25C1.78472 6.25 1.2066 6.03125 0.723958 5.59375C0.241319 5.15625 0 4.61111 0 3.95833C0 3.30556 0.241319 2.76042 0.723958 2.32292C1.2066 1.88542 1.78472 1.66667 2.45833 1.66667L5.08333 1.66667L4 0.583333L4.58333 0L6.66667 2.08333L4.58333 4.16667L4 3.58333L5.08333 2.5L2.45833 2.5C2.02083 2.5 1.64062 2.63889 1.31771 2.91667C0.994792 3.19444 0.833333 3.54167 0.833333 3.95833C0.833333 4.375 0.994792 4.72222 1.31771 5C1.64062 5.27778 2.02083 5.41667 2.45833 5.41667L5.41667 5.41667L5.41667 6.25L2.45833 6.25Z" fill="rgb(29,27,32)" fill-rule="nonzero" transform="matrix(-1,0,0,1,35.3333,137.667)" />
		</g>
	</g>
	<g id="Chevron up" customFrame="url(#clipPath_35)">
		<rect id="Chevron up" width="40.000000" height="40.000000" x="317.000000" y="37.000000" fill="rgb(255,255,255)" fill-opacity="0" />
		<g id="Chevron up" clip-path="url(#clipPath_36)" customFrame="url(#clipPath_36)">
			<rect id="Chevron up" width="40.000000" height="40.000000" x="317.000000" y="37.000000" fill="rgb(255,255,255)" fill-opacity="0" />
			<path id="Icon" d="M347 62L337 52L327 62" fill-rule="nonzero" stroke="rgb(255,255,255)" stroke-linecap="round" stroke-linejoin="round" stroke-width="3.5" />
		</g>
	</g>
	<g id="Chevron down" customFrame="url(#clipPath_37)">
		<rect id="Chevron down" width="40.000000" height="40.000000" x="317.000000" y="125.000000" fill="rgb(255,255,255)" fill-opacity="0" />
		<g id="Chevron down" clip-path="url(#clipPath_38)" customFrame="url(#clipPath_38)">
			<rect id="Chevron down" width="40.000000" height="40.000000" x="317.000000" y="125.000000" fill="rgb(255,255,255)" fill-opacity="0" />
			<path id="Icon" d="M327 140L337 150L347 140" fill-rule="nonzero" stroke="rgb(255,255,255)" stroke-linecap="round" stroke-linejoin="round" stroke-width="3.5" />
		</g>
		<line id="Line 1" x1="327" x2="347" y1="124" y2="124" stroke="rgb(0,0,0)" stroke-width="4" />
		<line id="Line 2" x1="327" x2="347" y1="76" y2="76" stroke="rgb(0,0,0)" stroke-width="4" />
	</g>
	<g id="Circle" customFrame="url(#clipPath_39)">
		<rect id="Circle" width="24.000000" height="24.000000" x="325.000000" y="87.000000" fill="rgb(255,255,255)" fill-opacity="0" />
		<g id="Circle" clip-path="url(#clipPath_40)" customFrame="url(#clipPath_40)">
			<rect id="Circle" width="24.000000" height="24.000000" x="325.000000" y="87.000000" fill="rgb(255,255,255)" fill-opacity="0" />
			<path id="Icon" d="M337 109C331.477 109 327 104.523 327 99C327 93.4771 331.477 89 337 89C342.523 89 347 93.4771 347 99C347 104.523 342.523 109 337 109Z" fill-rule="nonzero" stroke="rgb(255,255,255)" stroke-linecap="round" stroke-linejoin="round" stroke-width="2.5" />
		</g>
	</g>
	<path id="No Vehicle" d="M146.467 109.268L145.222 109.268L141.362 101.182L141.362 109.268L140.359 109.268L140.359 99.71L141.772 99.71L145.457 107.422L145.457 99.71L146.467 99.71L146.467 109.268ZM155.19 105.877C155.19 106.409 155.105 106.893 154.934 107.327C154.768 107.762 154.526 108.135 154.209 108.448C153.896 108.755 153.521 108.997 153.081 109.173C152.642 109.349 152.151 109.437 151.609 109.437C151.077 109.437 150.591 109.349 150.151 109.173C149.712 108.997 149.333 108.755 149.016 108.448C148.704 108.135 148.462 107.762 148.291 107.327C148.125 106.893 148.042 106.409 148.042 105.877C148.042 105.359 148.125 104.878 148.291 104.434C148.462 103.985 148.704 103.604 149.016 103.292C149.333 102.974 149.712 102.728 150.151 102.552C150.591 102.371 151.077 102.281 151.609 102.281C152.151 102.281 152.642 102.371 153.081 102.552C153.521 102.728 153.896 102.974 154.209 103.292C154.526 103.604 154.768 103.985 154.934 104.434C155.105 104.878 155.19 105.359 155.19 105.877ZM154.187 105.877C154.187 105.486 154.128 105.127 154.011 104.8C153.899 104.468 153.73 104.178 153.506 103.929C153.281 103.68 153.008 103.484 152.686 103.343C152.368 103.201 152.009 103.13 151.609 103.13C151.208 103.13 150.847 103.201 150.525 103.343C150.208 103.484 149.939 103.68 149.719 103.929C149.5 104.178 149.331 104.468 149.214 104.8C149.102 105.127 149.045 105.486 149.045 105.877C149.045 106.268 149.102 106.629 149.214 106.961C149.331 107.288 149.5 107.571 149.719 107.811C149.939 108.05 150.208 108.238 150.525 108.375C150.847 108.511 151.208 108.58 151.609 108.58C152.009 108.58 152.368 108.511 152.686 108.375C153.008 108.238 153.281 108.05 153.506 107.811C153.73 107.571 153.899 107.288 154.011 106.961C154.128 106.629 154.187 106.268 154.187 105.877ZM171.853 99.71L168.66 109.268L167.297 109.268L164.133 99.71L165.195 99.71L167.986 108.25L170.762 99.71L171.853 99.71ZM173.757 106.207C173.831 106.929 174.094 107.505 174.548 107.935C175.002 108.365 175.593 108.58 176.321 108.58C176.833 108.58 177.29 108.475 177.69 108.265C178.091 108.055 178.391 107.793 178.591 107.481L179.294 107.964C178.953 108.443 178.545 108.809 178.071 109.063C177.598 109.312 177.014 109.437 176.321 109.437C175.793 109.437 175.31 109.349 174.871 109.173C174.431 108.997 174.05 108.753 173.728 108.44C173.411 108.123 173.164 107.747 172.988 107.312C172.812 106.878 172.725 106.395 172.725 105.862C172.725 105.345 172.803 104.869 172.959 104.434C173.12 103.995 173.35 103.616 173.647 103.299C173.95 102.977 174.316 102.728 174.746 102.552C175.176 102.371 175.657 102.281 176.189 102.281C176.77 102.281 177.278 102.378 177.712 102.574C178.147 102.769 178.508 103.04 178.796 103.387C179.089 103.729 179.304 104.139 179.441 104.617C179.583 105.096 179.653 105.625 179.653 106.207L173.757 106.207ZM178.591 105.35C178.479 104.603 178.208 104.046 177.778 103.68C177.349 103.313 176.819 103.13 176.189 103.13C175.867 103.13 175.569 103.184 175.295 103.292C175.022 103.394 174.78 103.543 174.57 103.738C174.36 103.934 174.185 104.17 174.043 104.449C173.901 104.722 173.811 105.022 173.772 105.35L178.591 105.35ZM187.41 109.268L186.399 109.268L186.399 105.057C186.399 104.446 186.267 103.973 186.003 103.636C185.74 103.299 185.312 103.13 184.722 103.13C184.351 103.13 184.014 103.216 183.711 103.387C183.413 103.558 183.159 103.787 182.949 104.075C182.739 104.358 182.578 104.686 182.466 105.057C182.358 105.423 182.305 105.806 182.305 106.207L182.305 109.268L181.301 109.268L181.301 99.71L182.305 99.71L182.305 104.156C182.788 102.906 183.65 102.281 184.89 102.281C186.57 102.281 187.41 103.206 187.41 105.057L187.41 109.268ZM193.225 101.08L191.863 101.08L191.863 99.71L193.225 99.71L193.225 101.08ZM194.587 109.268L190.493 109.268L190.493 108.411L192.039 108.411L192.039 103.299L190.493 103.299L190.493 102.442L193.049 102.442L193.049 108.411L194.587 108.411L194.587 109.268ZM203.889 107.964C203.601 108.414 203.206 108.772 202.703 109.041C202.205 109.305 201.611 109.437 200.923 109.437C200.391 109.437 199.902 109.349 199.458 109.173C199.014 108.997 198.633 108.753 198.315 108.44C198.003 108.123 197.759 107.747 197.583 107.312C197.407 106.878 197.319 106.395 197.319 105.862C197.319 105.345 197.4 104.866 197.561 104.427C197.722 103.982 197.952 103.604 198.25 103.292C198.547 102.974 198.911 102.728 199.341 102.552C199.775 102.371 200.256 102.281 200.784 102.281C200.994 102.281 201.208 102.305 201.428 102.354C201.648 102.403 201.855 102.479 202.051 102.581C202.246 102.679 202.422 102.798 202.578 102.94C202.734 103.077 202.852 103.24 202.93 103.431L202.93 102.442L203.831 102.442L203.831 105.174L202.93 105.174C202.93 104.871 202.874 104.595 202.761 104.346C202.654 104.097 202.505 103.882 202.314 103.702C202.124 103.521 201.897 103.382 201.633 103.284C201.37 103.182 201.086 103.13 200.784 103.13C200.374 103.13 200.015 103.201 199.707 103.343C199.404 103.484 199.15 103.677 198.945 103.921C198.74 104.166 198.584 104.454 198.477 104.786C198.374 105.113 198.323 105.472 198.323 105.862C198.323 106.253 198.381 106.614 198.499 106.946C198.621 107.273 198.794 107.557 199.019 107.796C199.248 108.035 199.521 108.226 199.839 108.367C200.161 108.509 200.522 108.58 200.923 108.58C201.431 108.58 201.882 108.479 202.278 108.279C202.673 108.079 202.976 107.813 203.186 107.481L203.889 107.964ZM210.964 109.268L206.87 109.268L206.87 108.411L208.416 108.411L208.416 100.567L206.87 100.567L206.87 99.71L209.426 99.71L209.426 108.411L210.964 108.411L210.964 109.268ZM214.7 106.207C214.773 106.929 215.037 107.505 215.491 107.935C215.945 108.365 216.536 108.58 217.263 108.58C217.776 108.58 218.232 108.475 218.633 108.265C219.033 108.055 219.333 107.793 219.534 107.481L220.237 107.964C219.895 108.443 219.487 108.809 219.014 109.063C218.54 109.312 217.957 109.437 217.263 109.437C216.736 109.437 216.252 109.349 215.813 109.173C215.374 108.997 214.993 108.753 214.67 108.44C214.353 108.123 214.106 107.747 213.931 107.312C213.755 106.878 213.667 106.395 213.667 105.862C213.667 105.345 213.745 104.869 213.901 104.434C214.062 103.995 214.292 103.616 214.59 103.299C214.893 102.977 215.259 102.728 215.688 102.552C216.118 102.371 216.599 102.281 217.131 102.281C217.712 102.281 218.22 102.378 218.655 102.574C219.089 102.769 219.451 103.04 219.739 103.387C220.032 103.729 220.247 104.139 220.383 104.617C220.525 105.096 220.596 105.625 220.596 106.207L214.7 106.207ZM219.534 105.35C219.421 104.603 219.15 104.046 218.721 103.68C218.291 103.313 217.761 103.13 217.131 103.13C216.809 103.13 216.511 103.184 216.238 103.292C215.964 103.394 215.723 103.543 215.513 103.738C215.303 103.934 215.127 104.17 214.985 104.449C214.844 104.722 214.753 105.022 214.714 105.35L219.534 105.35Z" fill="rgb(0,0,0)" fill-rule="nonzero" />
	<path id="12:05" d="M264.638 52.1787L261.908 52.1787L261.908 51.6074L262.938 51.6074L262.938 47.2568C262.88 47.3903 262.787 47.5335 262.66 47.6865C262.533 47.8363 262.383 47.9746 262.211 48.1016C262.038 48.2253 261.848 48.3294 261.64 48.4141C261.435 48.4987 261.221 48.541 261 48.541L261 47.8477C261.199 47.8477 261.412 47.7858 261.64 47.6621C261.868 47.5384 262.077 47.3805 262.27 47.1885C262.462 46.9964 262.621 46.7783 262.748 46.5342C262.875 46.29 262.938 46.0475 262.938 45.8066L263.612 45.8066L263.612 51.6074L264.638 51.6074L264.638 52.1787ZM270.771 47.457C270.771 47.6328 270.754 47.7907 270.722 47.9307C270.692 48.0706 270.637 48.2122 270.556 48.3555C270.478 48.4987 270.373 48.6501 270.243 48.8096C270.113 48.9691 269.949 49.1514 269.75 49.3564L267.528 51.6074L270.219 51.6074L270.219 50.3574L270.79 50.3574L270.79 52.1787L266.649 52.1787L266.649 51.5879L269.13 49.0684C269.257 48.9414 269.377 48.8145 269.491 48.6875C269.608 48.5605 269.713 48.432 269.804 48.3018C269.895 48.1716 269.966 48.0365 270.019 47.8965C270.071 47.7565 270.097 47.61 270.097 47.457C270.097 47.0664 269.966 46.7718 269.706 46.5732C269.449 46.3714 269.13 46.2705 268.749 46.2705C268.215 46.2705 267.812 46.4186 267.538 46.7148C267.265 47.0111 267.128 47.4391 267.128 47.999L266.508 47.999C266.508 47.2796 266.7 46.7165 267.084 46.3096C267.468 45.9027 268.023 45.6992 268.749 45.6992C269.022 45.6992 269.28 45.7399 269.521 45.8213C269.765 45.8994 269.979 46.0133 270.165 46.1631C270.354 46.3128 270.502 46.4967 270.609 46.7148C270.717 46.9297 270.771 47.1771 270.771 47.457ZM274.647 48.541L273.739 48.541L273.739 47.6279L274.647 47.6279L274.647 48.541ZM274.647 52.1787L273.739 52.1787L273.739 51.2705L274.647 51.2705L274.647 52.1787ZM277.885 49C277.885 49.472 277.942 49.9147 278.056 50.3281L281.039 47.1787C280.883 46.8857 280.689 46.6611 280.458 46.5049C280.23 46.3486 279.963 46.2705 279.657 46.2705C279.084 46.2705 278.645 46.5146 278.339 47.0029C278.036 47.488 277.885 48.1536 277.885 49ZM278.285 50.8701C278.607 51.443 279.065 51.7295 279.657 51.7295C280.217 51.7295 280.652 51.487 280.961 51.002C281.27 50.5137 281.425 49.8464 281.425 49C281.425 48.7656 281.41 48.5443 281.381 48.3359C281.352 48.1243 281.311 47.9225 281.259 47.7305L278.285 50.8701ZM277.216 49C277.216 48.5736 277.261 48.1618 277.353 47.7646C277.444 47.3675 277.585 47.0159 277.777 46.71C277.969 46.404 278.22 46.1598 278.529 45.9775C278.842 45.792 279.218 45.6992 279.657 45.6992C280.097 45.6992 280.471 45.792 280.78 45.9775C281.093 46.1598 281.347 46.404 281.542 46.71C281.737 47.0159 281.879 47.3675 281.967 47.7646C282.055 48.1618 282.099 48.5736 282.099 49C282.099 49.4264 282.055 49.8382 281.967 50.2354C281.879 50.6325 281.739 50.9824 281.547 51.2852C281.355 51.5879 281.103 51.832 280.79 52.0176C280.481 52.1999 280.103 52.291 279.657 52.291C279.211 52.291 278.832 52.1999 278.52 52.0176C278.21 51.832 277.958 51.5879 277.763 51.2852C277.571 50.9824 277.432 50.6325 277.348 50.2354C277.26 49.8382 277.216 49.4264 277.216 49ZM287.416 50.04C287.416 50.3525 287.357 50.6455 287.24 50.9189C287.123 51.1924 286.962 51.4316 286.757 51.6367C286.555 51.8385 286.311 51.998 286.024 52.1152C285.738 52.2324 285.425 52.291 285.087 52.291C284.781 52.291 284.498 52.2454 284.237 52.1543C283.977 52.0632 283.747 51.9329 283.549 51.7637C283.354 51.5944 283.196 51.3861 283.075 51.1387C282.955 50.8913 282.882 50.6081 282.855 50.2891L283.505 50.1865C283.524 50.4079 283.577 50.6146 283.661 50.8066C283.746 50.9954 283.856 51.1566 283.993 51.29C284.13 51.4235 284.291 51.5293 284.477 51.6074C284.662 51.6823 284.866 51.7197 285.087 51.7197C285.347 51.7197 285.578 51.6774 285.78 51.5928C285.985 51.5049 286.16 51.3844 286.303 51.2314C286.446 51.0752 286.555 50.8962 286.63 50.6943C286.708 50.4893 286.747 50.2712 286.747 50.04C286.747 49.7992 286.708 49.5762 286.63 49.3711C286.555 49.1628 286.448 48.9837 286.308 48.834C286.168 48.6842 285.995 48.5671 285.79 48.4824C285.588 48.3945 285.364 48.3506 285.116 48.3506C284.856 48.3506 284.605 48.4059 284.364 48.5166C284.127 48.624 283.92 48.7819 283.744 48.9902L283.075 48.9902L283.075 45.8066L287.064 45.8066L287.064 46.3779L283.744 46.3779L283.744 48.3701C283.939 48.1813 284.161 48.0365 284.408 47.9355C284.659 47.8314 284.914 47.7793 285.175 47.7793C285.504 47.7793 285.805 47.833 286.078 47.9404C286.352 48.0446 286.588 48.1943 286.786 48.3896C286.985 48.5817 287.139 48.8177 287.25 49.0977C287.361 49.3776 287.416 49.6917 287.416 50.04Z" fill="rgb(0,0,0)" fill-rule="nonzero" />
	<g id="Group 3">
		<line id="Line 11" x1="0" x2="10" y1="0" y2="0" stroke="rgb(0,0,0)" stroke-width="3" transform="matrix(6.12323e-17,1,-1,6.12323e-17,244.5,44)" />
		<line id="Line 12" x1="0" x2="3" y1="0" y2="0" stroke="rgb(0,0,0)" stroke-width="3" transform="matrix(6.12323e-17,1,-1,6.12323e-17,248.5,44)" />
		<line id="Line 16" x1="0" x2="3" y1="0" y2="0" stroke="rgb(0,0,0)" stroke-width="3" transform="matrix(6.12323e-17,1,-1,6.12323e-17,250.5,51)" />
		<line id="Line 14" x1="0" x2="15" y1="0" y2="0" stroke="rgb(0,0,0)" stroke-width="4" transform="matrix(-1,1.22465e-16,-1.22465e-16,-1,257,49)" />
		<line id="Line 13" x1="0" x2="10" y1="0" y2="0" stroke="rgb(0,0,0)" stroke-width="3" transform="matrix(6.12323e-17,1,-1,6.12323e-17,254.5,44)" />
		<line id="Line 15" x1="248" x2="249" y1="50.5" y2="50.5" stroke="rgb(255,255,255)" stroke-width="1" />
		<line id="Line 18" x1="248" x2="249" y1="50.5" y2="50.5" stroke="rgb(255,255,255)" stroke-width="1" />
		<line id="Line 17" x1="249" x2="250" y1="49.5" y2="49.5" stroke="rgb(255,255,255)" stroke-width="1" />
		<line id="Line 19" x1="250" x2="251" y1="48.5" y2="48.5" stroke="rgb(255,255,255)" stroke-width="1" />
		<line id="Line 20" x1="251" x2="252" y1="47.5" y2="47.5" stroke="rgb(255,255,255)" stroke-width="1" />
	</g>
	<g filter="url(#filter_21)">
		<rect id="Rectangle 12" width="25.000000" height="5.000000" x="19.000000" y="76.000000" rx="2.500000" fill="rgb(255,0,0)" />
		<rect id="Rectangle 12" width="24.000000" height="4.000000" x="19.500000" y="76.500000" rx="2.000000" stroke="rgb(217,217,217)" stroke-width="1" />
	</g>
	<rect id="Rectangle 11" width="25.000000" height="5.000000" x="19.000000" y="115.000000" rx="2.500000" fill="rgb(150.981,163.053,59.577)" />
</svg>
